# xmcd
#
# Track frame offsets:
#	150
#	12673
#	32667
#	47581
#	61977
#	76877
#
# Disc length: 1191 seconds
#
# Revision: 0
# Processed by: cddbd v1.5.1PL0 Copyright (c) Steve Scherf et al.
# Submitted via: MusicManager 7.0.4.0 
#
DISCID=4204a506
DTITLE=Various Artist - FREE CD FROM DUALTONE'S MUSIC
DYEAR=1900
DGENRE=country
TTITLE0=JUNE CARTER CASH - KEEP ON THE SUNNY SIDE
TTITLE1=NORMAN and NANCY BLAKE - WHEN THE ROSES BLOOM IN DIXIELAND
TTITLE2=JOE and JANETTE CARTER - LIL DARLING
TTITLE3=RODNEY CROWELL - BALLAD OF A TEENAGE QUEEN
TTITLE4=NITTY GRITTY DIRT BAND - IT'S A NEW DAY
TTITLE5=JIM LAUDERDALE and RALPH STANLEY - SHE'S LOOKING AT ME
EXTD=
EXTT0=
EXTT1=
EXTT2=
EXTT3=
EXTT4=
EXTT5=
PLAYORDER=
